# xmcd
#
# Track frame offsets: 
#        150
#        13845
#        29027
#        44358
#        60394
#        75963
#        87239
#        100878
#        114614
#        126766
#        140864
#        154585
#        167038
#        182081
#        195147
#        208211
#        222337
#        235354
#        252950
#        265575
#        277402
#        288004
#        302044
#        316057
#
# Disc length: 4400 seconds
#
# Revision: 0
# Processed by: cddbd v1.5.2PL0 Copyright (c) Steve Scherf et al.
# Submitted via: ExactAudioCopy v1.1
#
DISCID=57112e18
DTITLE=Various Artist - MNM Party 2018 Volume 1 - CD 1 - Newest Party Hits
DYEAR=2018
DGENRE=Pop
TTITLE0=Sofi Tukker Feat. Nervo, The Knocks and Aliso Ueno - Best Friend
TTITLE1=Dimitri Vegas and Like Mike X Quintino Feat. Boef, Ronnie Flex, 
TTITLE1=Ali B and I Am Aisha - Slow Down
TTITLE2=Clean Bandit Feat. Julia Michaels - I Miss You
TTITLE3=MC Fioti, Future, J Balvin, Stefflon Don and Juan Magan - Bum Bu
TTITLE3=m Tam Tam
TTITLE4=Jax Jones Feat. Ina Wroldsen - Breathe
TTITLE5=Lost Frequencies and Zonderling - Crazy
TTITLE6=Like Mike - Memories
TTITLE7=Martin Garrix and David Guetta Feat. Jamie Scott and Romy Dya - So
TTITLE7=Far Away
TTITLE8=Kenn Colt X Nari and Milani - Come Back To Me
TTITLE9=Regi and OT - You Have A Heart
TTITLE10=Bizzey Feat. Kraantje Pappie, Chivv and Yung Felix - Ja!
TTITLE11=Sara Gold Feat. Jasmin - Gold In Your Eyes
TTITLE12=Jahyanai Feat. Bamby - Who Mad Again
TTITLE13=Todiefor Feat. Caballero and JeanJass, Alex Lucas and Anser - Coo
TTITLE13=l Kids
TTITLE14=DJ Licious - I Can't Stop
TTITLE15=Sevn Alias Feat. Lil Kleine and Boef - Patsergedrag
TTITLE16=5napback Feat. Maria Mathea - Do You Better
TTITLE17=Kygo Feat. Justin Jesso - Stargazing
TTITLE18=Michael Calfan - On You
TTITLE19=Basada Feat. Camden Cox - Good Vibes
TTITLE20=Lennert Wolfs and Oualid - Mi Amor
TTITLE21=Lucas and Steve - Up Till Dawn (On The Move)
TTITLE22=Henri PFR and Romeo Blanco Feat. Veronica - In The Mood
TTITLE23=Big Shaq - Man's Not Hot
EXTD=
EXTT0=
EXTT1=
EXTT2=
EXTT3=
EXTT4=
EXTT5=
EXTT6=
EXTT7=
EXTT8=
EXTT9=
EXTT10=
EXTT11=
EXTT12=
EXTT13=
EXTT14=
EXTT15=
EXTT16=
EXTT17=
EXTT18=
EXTT19=
EXTT20=
EXTT21=
EXTT22=
EXTT23=
PLAYORDER=
